<svg width="16" height="16" viewBox="0 0 16 16" fill="none" xmlns="http://www.w3.org/2000/svg">
<path d="M7.25 8.75V11C7.25 11.2125 7.322 11.3907 7.466 11.5347C7.61 11.6787 7.788 11.7505 8 11.75C8.2125 11.75 8.39075 11.678 8.53475 11.534C8.67875 11.39 8.7505 11.212 8.75 11V8.75H11C11.2125 8.75 11.3907 8.678 11.5347 8.534C11.6787 8.39 11.7505 8.212 11.75 8C11.75 7.7875 11.678 7.60925 11.534 7.46525C11.39 7.32125 11.212 7.2495 11 7.25H8.75V5C8.75 4.7875 8.678 4.60925 8.534 4.46525C8.39 4.32125 8.212 4.2495 8 4.25C7.7875 4.25 7.60925 4.322 7.46525 4.466C7.32125 4.61 7.2495 4.788 7.25 5V7.25H5C4.7875 7.25 4.60925 7.322 4.46525 7.466C4.32125 7.61 4.2495 7.788 4.25 8C4.25 8.2125 4.322 8.39075 4.466 8.53475C4.61 8.67875 4.788 8.7505 5 8.75H7.25ZM8 15.5C6.9625 15.5 5.9875 15.303 5.075 14.909C4.1625 14.515 3.36875 13.9808 2.69375 13.3063C2.01875 12.6313 1.4845 11.8375 1.091 10.925C0.6975 10.0125 0.5005 9.0375 0.5 8C0.5 6.9625 0.697 5.9875 1.091 5.075C1.485 4.1625 2.01925 3.36875 2.69375 2.69375C3.36875 2.01875 4.1625 1.4845 5.075 1.091C5.9875 0.6975 6.9625 0.5005 8 0.5C9.0375 0.5 10.0125 0.697 10.925 1.091C11.8375 1.485 12.6313 2.01925 13.3063 2.69375C13.9813 3.36875 14.5157 4.1625 14.9097 5.075C15.3037 5.9875 15.5005 6.9625 15.5 8C15.5 9.0375 15.303 10.0125 14.909 10.925C14.515 11.8375 13.9808 12.6313 13.3063 13.3063C12.6313 13.9813 11.8375 14.5157 10.925 14.9097C10.0125 15.3037 9.0375 15.5005 8 15.5ZM8 14C9.675 14 11.0937 13.4187 12.2562 12.2562C13.4187 11.0937 14 9.675 14 8C14 6.325 13.4187 4.90625 12.2562 3.74375C11.0937 2.58125 9.675 2 8 2C6.325 2 4.90625 2.58125 3.74375 3.74375C2.58125 4.90625 2 6.325 2 8C2 9.675 2.58125 11.0937 3.74375 12.2562C4.90625 13.4187 6.325 14 8 14Z" fill="#1428A1"/>
</svg>
