<svg width="16" height="16" viewBox="0 0 16 16" fill="none" xmlns="http://www.w3.org/2000/svg">
<path d="M6.6498 2.6001H9.3498C9.3498 2.24206 9.20757 1.89868 8.9544 1.6455C8.70122 1.39233 8.35785 1.2501 7.9998 1.2501C7.64176 1.2501 7.29838 1.39233 7.04521 1.6455C6.79204 1.89868 6.6498 2.24206 6.6498 2.6001ZM5.7498 2.6001C5.7498 2.00336 5.98686 1.43106 6.40881 1.00911C6.83077 0.587151 7.40307 0.350098 7.9998 0.350098C8.59654 0.350098 9.16884 0.587151 9.59079 1.00911C10.0128 1.43106 10.2498 2.00336 10.2498 2.6001H14.7498C14.8692 2.6001 14.9836 2.64751 15.068 2.7319C15.1524 2.81629 15.1998 2.93075 15.1998 3.0501C15.1998 3.16945 15.1524 3.2839 15.068 3.3683C14.9836 3.45269 14.8692 3.5001 14.7498 3.5001H13.8012L12.7266 12.8097C12.6506 13.4678 12.3354 14.075 11.8409 14.5157C11.3464 14.9565 10.707 15.2001 10.0446 15.2001H5.955C5.29256 15.2001 4.65326 14.9565 4.15873 14.5157C3.6642 14.075 3.34896 13.4678 3.273 12.8097L2.1984 3.5001H1.2498C1.13046 3.5001 1.016 3.45269 0.931607 3.3683C0.847215 3.2839 0.799805 3.16945 0.799805 3.0501C0.799805 2.93075 0.847215 2.81629 0.931607 2.7319C1.016 2.64751 1.13046 2.6001 1.2498 2.6001H5.7498ZM4.1667 12.7071C4.21749 13.1458 4.42775 13.5504 4.75748 13.8442C5.08722 14.1379 5.51342 14.3002 5.955 14.3001H10.0446C10.4862 14.3002 10.9124 14.1379 11.2421 13.8442C11.5719 13.5504 11.7821 13.1458 11.8329 12.7071L12.8949 3.5001H3.1047L4.1667 12.7071ZM6.6498 5.7501C6.76915 5.7501 6.88361 5.79751 6.968 5.8819C7.05239 5.96629 7.0998 6.08075 7.0998 6.2001V11.6001C7.0998 11.7194 7.05239 11.8339 6.968 11.9183C6.88361 12.0027 6.76915 12.0501 6.6498 12.0501C6.53046 12.0501 6.416 12.0027 6.33161 11.9183C6.24721 11.8339 6.1998 11.7194 6.1998 11.6001V6.2001C6.1998 6.08075 6.24721 5.96629 6.33161 5.8819C6.416 5.79751 6.53046 5.7501 6.6498 5.7501ZM9.7998 6.2001C9.7998 6.08075 9.75239 5.96629 9.668 5.8819C9.58361 5.79751 9.46915 5.7501 9.3498 5.7501C9.23046 5.7501 9.116 5.79751 9.03161 5.8819C8.94722 5.96629 8.8998 6.08075 8.8998 6.2001V11.6001C8.8998 11.7194 8.94722 11.8339 9.03161 11.9183C9.116 12.0027 9.23046 12.0501 9.3498 12.0501C9.46915 12.0501 9.58361 12.0027 9.668 11.9183C9.75239 11.8339 9.7998 11.7194 9.7998 11.6001V6.2001Z" fill="#19289F"/>
</svg>
