<svg width="15" height="15" viewBox="0 0 15 15" fill="none" xmlns="http://www.w3.org/2000/svg">
<path d="M13.75 4.3929L10.607 1.24993C10.5031 1.14491 10.3793 1.06154 10.243 1.00465C10.1066 0.947752 9.96027 0.918457 9.8125 0.918457C9.66473 0.918457 9.51843 0.947752 9.38205 1.00465C9.24567 1.06154 9.12193 1.14491 9.01797 1.24993L0.580469 9.68743C0.475632 9.79147 0.392449 9.91525 0.335728 10.0516C0.279006 10.188 0.249869 10.3343 0.25 10.482V13.6249C0.25 13.9233 0.368527 14.2094 0.579505 14.4204C0.790484 14.6314 1.07663 14.7499 1.375 14.7499H4.51797C4.66567 14.7501 4.81193 14.7209 4.9483 14.6642C5.08468 14.6075 5.20846 14.5243 5.3125 14.4195L13.75 5.98196C13.9587 5.77017 14.0757 5.48477 14.0757 5.18743C14.0757 4.89009 13.9587 4.6047 13.75 4.3929ZM4.51797 13.6249H1.375V10.482L7.5625 4.29446L10.7055 7.43743L4.51797 13.6249ZM11.5 6.6429L8.35703 3.49993L9.8125 2.04446L12.9555 5.18743L11.5 6.6429Z" fill="#19289F"/>
</svg>
