<svg width="19" height="19" viewBox="0 0 19 19" fill="none" xmlns="http://www.w3.org/2000/svg">
<path fill-rule="evenodd" clip-rule="evenodd" d="M0.875195 18.8742L0.915039 18.875L0.948633 18.8719C1.09785 18.8531 1.69629 18.7383 1.69629 18.0938C1.69629 14.2102 4.84395 11.0625 8.72754 11.0625C9.24395 11.0625 9.76426 11.0625 10.2807 11.0625C14.1635 11.0625 17.3119 14.2102 17.3119 18.0938C17.3119 18.1102 17.3119 18.1258 17.3135 18.1414C17.3252 18.3953 17.433 18.5609 17.5658 18.6695C17.7049 18.7977 17.89 18.875 18.0932 18.875C18.0932 18.875 18.8744 18.8305 18.8744 18.0938C18.8744 13.3477 15.0268 9.5 10.2807 9.5C9.76426 9.5 9.24395 9.5 8.72754 9.5C3.98145 9.5 0.133789 13.3477 0.133789 18.0938C0.133789 18.0547 0.136133 18.0219 0.140039 17.9945C0.136133 18.0266 0.133789 18.0602 0.133789 18.0938C0.133789 18.5117 0.461914 18.8531 0.875195 18.8742Z" fill="#242933"/>
<path fill-rule="evenodd" clip-rule="evenodd" d="M9.4959 0.115723C7.33731 0.115723 5.58496 1.86807 5.58496 4.02666C5.58496 6.18525 7.33731 7.9376 9.4959 7.9376C11.6545 7.9376 13.4068 6.18525 13.4068 4.02666C13.4068 1.86807 11.6545 0.115723 9.4959 0.115723ZM9.4959 1.67822C10.792 1.67822 11.8443 2.73057 11.8443 4.02666C11.8443 5.32275 10.792 6.3751 9.4959 6.3751C8.19981 6.3751 7.14746 5.32275 7.14746 4.02666C7.14746 2.73057 8.19981 1.67822 9.4959 1.67822Z" fill="#242933"/>
</svg>
