<svg width="22" height="22" viewBox="0 0 22 22" fill="none" xmlns="http://www.w3.org/2000/svg">
<path d="M19.6433 4.71411H2.35756C1.48969 4.71411 0.786133 5.41766 0.786133 6.28554V10.9998C0.786133 11.8677 1.48969 12.5713 2.35756 12.5713H19.6433C20.5112 12.5713 21.2147 11.8677 21.2147 10.9998V6.28554C21.2147 5.41766 20.5112 4.71411 19.6433 4.71411Z" stroke="#242933" stroke-linecap="round" stroke-linejoin="round"/>
<path d="M19.6431 12.5714V19.6428C19.6431 20.0596 19.4776 20.4593 19.1829 20.754C18.8882 21.0487 18.4885 21.2142 18.0717 21.2142H3.92885C3.51208 21.2142 3.11238 21.0487 2.81768 20.754C2.52298 20.4593 2.35742 20.0596 2.35742 19.6428V12.5714M11.0003 4.71422V21.2142M11.0003 4.71422L15.7146 0.785645M11.0003 4.71422L6.28599 0.785645" stroke="#242933" stroke-linecap="round" stroke-linejoin="round"/>
</svg>
