<svg width="22" height="24" viewBox="0 0 22 24" fill="none" xmlns="http://www.w3.org/2000/svg">
<path d="M20.8719 4.94063L16.1844 0.253125C16.0526 0.121226 15.8739 0.0470391 15.6875 0.046875H6.3125C5.87738 0.046875 5.46008 0.219726 5.1524 0.527403C4.84473 0.83508 4.67188 1.25238 4.67188 1.6875V3.79688H2.5625C2.12738 3.79688 1.71008 3.96973 1.4024 4.2774C1.09473 4.58508 0.921875 5.00238 0.921875 5.4375V22.3125C0.921875 22.7476 1.09473 23.1649 1.4024 23.4726C1.71008 23.7803 2.12738 23.9531 2.5625 23.9531H15.6875C16.1226 23.9531 16.5399 23.7803 16.8476 23.4726C17.1553 23.1649 17.3281 22.7476 17.3281 22.3125V20.2031H19.4375C19.8726 20.2031 20.2899 20.0303 20.5976 19.7226C20.9053 19.4149 21.0781 18.9976 21.0781 18.5625V5.4375C21.078 5.25108 21.0038 5.07236 20.8719 4.94063ZM15.9219 22.3125C15.9219 22.3747 15.8972 22.4343 15.8532 22.4782C15.8093 22.5222 15.7497 22.5469 15.6875 22.5469H2.5625C2.50034 22.5469 2.44073 22.5222 2.39677 22.4782C2.35282 22.4343 2.32812 22.3747 2.32812 22.3125V5.4375C2.32812 5.37534 2.35282 5.31573 2.39677 5.27177C2.44073 5.22782 2.50034 5.20312 2.5625 5.20312H11.6457L15.9219 9.4793V22.3125ZM19.6719 18.5625C19.6719 18.6247 19.6472 18.6843 19.6032 18.7282C19.5593 18.7722 19.4997 18.7969 19.4375 18.7969H17.3281V9.1875C17.328 9.00108 17.2538 8.82236 17.1219 8.69063L12.4344 4.00312C12.3026 3.87123 12.1239 3.79704 11.9375 3.79688H6.07812V1.6875C6.07812 1.62534 6.10282 1.56573 6.14677 1.52177C6.19073 1.47782 6.25034 1.45312 6.3125 1.45312H15.3957L19.6719 5.7293V18.5625ZM12.6406 14.8125C12.6406 14.999 12.5665 15.1778 12.4347 15.3097C12.3028 15.4415 12.124 15.5156 11.9375 15.5156H6.3125C6.12602 15.5156 5.94718 15.4415 5.81532 15.3097C5.68345 15.1778 5.60938 14.999 5.60938 14.8125C5.60938 14.626 5.68345 14.4472 5.81532 14.3153C5.94718 14.1835 6.12602 14.1094 6.3125 14.1094H11.9375C12.124 14.1094 12.3028 14.1835 12.4347 14.3153C12.5665 14.4472 12.6406 14.626 12.6406 14.8125ZM12.6406 18.5625C12.6406 18.749 12.5665 18.9278 12.4347 19.0597C12.3028 19.1915 12.124 19.2656 11.9375 19.2656H6.3125C6.12602 19.2656 5.94718 19.1915 5.81532 19.0597C5.68345 18.9278 5.60938 18.749 5.60938 18.5625C5.60938 18.376 5.68345 18.1972 5.81532 18.0653C5.94718 17.9335 6.12602 17.8594 6.3125 17.8594H11.9375C12.124 17.8594 12.3028 17.9335 12.4347 18.0653C12.5665 18.1972 12.6406 18.376 12.6406 18.5625Z" fill="black"/>
</svg>
