<svg width="20" height="20" viewBox="0 0 20 20" fill="none" xmlns="http://www.w3.org/2000/svg">
<path d="M10 14.4688C9.83334 14.4688 9.67709 14.4429 9.53125 14.3913C9.38542 14.3396 9.25 14.2508 9.125 14.125L4.625 9.625C4.39584 9.39584 4.28125 9.10417 4.28125 8.75C4.28125 8.39584 4.39584 8.10417 4.625 7.875C4.85417 7.64584 5.15125 7.52625 5.51625 7.51625C5.88125 7.50625 6.17792 7.61542 6.40625 7.84375L8.75 10.1875V1.25C8.75 0.895838 8.87 0.598755 9.11 0.358755C9.35 0.118755 9.64667 -0.000829008 10 4.32525e-06C10.3542 4.32525e-06 10.6513 0.120004 10.8913 0.360004C11.1313 0.600004 11.2508 0.896671 11.25 1.25V10.1875L13.5938 7.84375C13.8229 7.61459 14.12 7.505 14.485 7.515C14.85 7.525 15.1467 7.645 15.375 7.875C15.6042 8.10417 15.7188 8.39584 15.7188 8.75C15.7188 9.10417 15.6042 9.39584 15.375 9.625L10.875 14.125C10.75 14.25 10.6146 14.3388 10.4688 14.3913C10.3229 14.4438 10.1667 14.4696 10 14.4688ZM2.5 20C1.8125 20 1.22375 19.755 0.733752 19.265C0.243752 18.775 -0.000831211 18.1867 2.12224e-06 17.5V15C2.12224e-06 14.6458 0.120002 14.3488 0.360002 14.1088C0.600002 13.8688 0.896669 13.7492 1.25 13.75C1.60417 13.75 1.90125 13.87 2.14125 14.11C2.38125 14.35 2.50084 14.6467 2.5 15V17.5H17.5V15C17.5 14.6458 17.62 14.3488 17.86 14.1088C18.1 13.8688 18.3967 13.7492 18.75 13.75C19.1042 13.75 19.4013 13.87 19.6413 14.11C19.8813 14.35 20.0008 14.6467 20 15V17.5C20 18.1875 19.755 18.7763 19.265 19.2663C18.775 19.7563 18.1867 20.0008 17.5 20H2.5Z" fill="#545454"/>
</svg>
